<svg width="32" height="32" viewBox="0 0 32 32" fill="none" xmlns="http://www.w3.org/2000/svg">
<path d="M31.6305 0.388293C31.4503 0.209199 31.2227 0.085202 30.9745 0.0308797C30.7262 -0.0234427 30.4675 -0.00583183 30.2289 0.0816418L0.861469 10.7478C0.6082 10.8437 0.390149 11.0143 0.236279 11.237C0.0824083 11.4597 0 11.7238 0 11.9944C0 12.2649 0.0824083 12.5291 0.236279 12.7517C0.390149 12.9744 0.6082 13.145 0.861469 13.241L12.3281 17.8141L20.7913 9.3345L22.6734 11.2144L14.1702 19.7073L18.7622 31.16C18.8612 31.4081 19.0324 31.6208 19.2537 31.7706C19.4751 31.9203 19.7363 32.0003 20.0037 32C20.2734 31.9945 20.5352 31.9074 20.7544 31.7503C20.9737 31.5933 21.1401 31.3735 21.2318 31.12L31.9108 1.78822C32.0018 1.55233 32.0237 1.29549 31.9741 1.04762C31.9244 0.799761 31.8053 0.571097 31.6305 0.388293Z" fill="#4D7184"/>
</svg>
